<?xml version="1.0" encoding="utf-8"?>
<!-- Generator: Adobe Illustrator 18.1.1, SVG Export Plug-In . SVG Version: 6.00 Build 0)  -->
<svg version="1.1" xmlns="http://www.w3.org/2000/svg" xmlns:xlink="http://www.w3.org/1999/xlink" x="0px" y="0px"
	 viewBox="0 0 415 416" enable-background="new 0 0 415 416" xml:space="preserve">
<g id="Layer_2" display="none">
	<rect x="-18" y="-41" display="inline" fill="#88CEB5" stroke="#000000" stroke-miterlimit="10" width="478" height="545"/>
</g>
<g id="Layer_3">
	<polygon fill="#FFFFFF" stroke="#000000" stroke-miterlimit="10" points="106.1,99 116.8,89 125.7,78.9 137.1,69.2 152.9,56.3 
		169.2,44.1 186.8,31.7 201.3,25.3 219.7,17.3 235.1,11.5 258.3,6.2 275.5,2 300.2,3 320.3,5 325.4,6.9 335.3,8.4 347.2,12.1 
		356.2,18.5 364.6,26.8 375.2,40.6 378.3,46.9 382.2,60.1 385.5,72.9 386.7,85.6 386.2,92.6 383.7,103.5 380.2,111.4 374.1,125.8 
		371.6,129.5 358.2,143.7 343.8,159.7 329.3,170.7 314.9,181.6 305.2,190.4 295.3,199.5 284.8,208 270.6,219.4 267.7,223.5 
		275.8,231.5 288.9,243.2 301.6,256.1 312.8,266.7 319.4,280.3 323.6,294.5 325.5,303 325.7,309.2 326.3,313.9 328.8,323.7 
		335.3,336.2 341.5,349.1 344,351.5 345,355.9 348.6,362.4 355.8,371 360.7,381.4 362.2,387.5 361.4,392.3 359.6,395.4 356.2,398.8 
		352.2,398.8 345.1,397.6 340,397.5 338.2,398.1 332.1,397.6 326.3,398.2 321.3,400.1 316,399.7 302.8,404.8 298.9,406.7 
		288.7,408.4 263.4,412.8 260.4,412.8 254.9,410.7 252.7,410.1 249.5,410.7 246.4,409.8 244.3,407.1 241.2,407.1 238.7,407.1 
		236.2,405.3 234.7,404.4 232.3,404.6 227.4,402.6 226.7,400.5 227.6,397.4 227,395.9 223,396.4 218,394.7 214.8,391.1 215.2,386.6 
		221,385.8 234.1,385 244.1,381.4 256.6,377.7 262.2,374.6 268.4,372.5 277.4,368.5 285.7,362.5 289.8,359.8 294.5,355.7 
		296.6,350.8 296.6,345.7 295.3,338.2 290.2,330.8 280.6,319.4 273.8,311.6 264.7,300.6 260.9,297.1 257.6,305.8 257.5,314.2 
		257.6,321.4 261.4,325.7 263.6,330.3 263.7,337.7 259.4,343 255,345.1 248.1,345.6 242.9,346.4 235.9,345.5 228.8,346 220.2,346.6 
		211.9,344 206.7,343.8 199.8,345.6 193.5,346.1 187.7,345.3 167.6,340.5 162,339.4 156.9,340.2 150.9,341 147.3,340.9 142.1,338.4 
		139.1,333.4 138.3,327.7 141.6,325.6 147.6,326.6 153.1,324.2 161.5,325.1 166.7,325 174.1,317.9 187.8,314.9 202.7,305.1 
		210.3,296.5 211.1,279.6 207.5,263.5 201.5,247.1 186.4,215 182.7,202.5 182.7,201.3 169.1,203.5 154.7,203.6 147.6,233 
		146.7,239.6 147.6,252.7 144.7,266.8 141.5,276.1 140.6,289.4 137.5,303.2 135.1,311.3 130.1,325.1 121.8,340.4 117.2,349.1 
		114.3,357.3 113.4,363.7 110,374.3 108.5,381.2 103.8,385.9 94.9,390.5 85.7,392 73.1,392 64.1,395.7 57.3,401.2 52.8,403.3 
		41,415.3 35.6,415.3 35.6,413.1 43.1,403.7 48.8,393 46.5,392.6 27.4,400.3 21.6,399.3 20.1,397.2 25,392.6 21.8,391.5 18.5,393 
		12.8,389.8 17.3,385 16.1,382.1 20.1,376.7 30.3,371.1 48.3,362.2 55.1,358.1 67.3,358.8 76.7,358.8 83.3,355.3 88.5,332.6 
		90.6,323.9 90.3,320.4 80.8,325.1 74.3,331.3 65.8,336.5 55.8,341.5 47.9,344.6 44,344.8 41.6,341.4 47.8,333.6 58,326.8 
		60.6,325.1 60,321.4 57.5,319.8 53.2,319.6 43.2,320.4 31.9,319.5 24.2,317.3 16.3,317.4 10.3,315.2 8.8,311.6 12.3,309.2 
		16.7,309.9 19.9,310.5 16.2,307 20.1,305.6 20.3,302.5 27.4,302.5 42.6,298.6 62.3,297 72.8,293.6 79.4,288.4 84.1,273.3 
		86.7,257.1 88.3,231.5 90.6,220.4 94.7,198.5 98.2,184.6 87.4,180.9 70.2,178.7 58.2,177.7 49.8,178.5 42.7,180.5 26,179.7 
		20.8,178 19,173.2 17.8,166.5 17.3,164.7 13.6,164.2 13,161 14.8,156.3 12.6,153.1 13.6,150.4 15.6,147.7 13,146.8 7.6,147.4 
		4,147.4 1.4,142.6 7.6,132.6 13,119.8 12.6,110.1 15.1,95.8 19.6,85.4 25.3,79.1 35.1,71.7 47.6,67.2 59.2,65.8 70.4,66.3 
		82.5,68.8 92.7,75.4 97.5,80.6 102.4,91.5 	"/>
</g>
<g id="Layer_1">
	<g id="uBoiO2.tif">
		<g>
			<g>
				
					<path fill="none" stroke="#000000" stroke-width="2" stroke-linecap="round" stroke-linejoin="round" stroke-miterlimit="10" d="
					M266.6,223.6c3.3,0.6,5.4,3.1,7.2,5.5c2.8,3.7,6.1,6.8,9.7,9.6c6.6,5.2,12,11.7,18.4,17.3c3.7,3.3,7.6,6.4,10.3,10.7
					c3.9,6.4,7.6,12.7,9.5,20.2c1.2,4.8,2.4,9.6,3.6,14.4c0.9,3.4,0.2,7,0.8,10.5c1.7,9,4.7,17.4,9.4,25.1c1.4,2.3,2.7,4.8,3.8,7.3
					c0.9,2.1,1.7,4.4,3.7,5.9c1.2,0.9,1.2,2.5,1.6,4c1.1,4.5,3.7,8.4,7,11.7c5.8,5.7,8.8,12.8,10.4,20.5c0.9,4.6-1.5,8.4-4.6,11.7
					c-1.3,1.4-3.3,1.3-4.6,0.8c-2.1-0.7-4.2-0.2-6.2-1c-3.1-1.2-6.4,0.2-9.6,0c-4.8-0.4-9.7,0-14.3,1.7c-2.7,1-5.7-0.4-8.4,0.7
					c-3.8,1.4-7.5,2.8-11.1,4.7c-4.1,2.1-8.4,2.8-12.9,3.1c-4.8,0.4-9.6,1.4-14.3,2.3c-4,0.7-8,1.7-12,2.6c-2.5,0.6-5.1,0.1-7.6-1
					c-2.2-0.9-3.5-2.3-3.7-4.5c-0.2-1.9,2.2-4.2,4.3-5c2.8-1,6.2-0.7,8.5-3.2"/>
				
					<path fill="none" stroke="#000000" stroke-width="2" stroke-linecap="round" stroke-linejoin="round" stroke-miterlimit="10" d="
					M267.7,223.5c1.2-3.2,4.1-5.1,6.5-7.2c4.8-4.2,10.1-7.8,15.1-11.8c2.7-2.1,5.3-4.4,7.9-6.7c5.2-4.7,10.1-9.8,15.6-14.2
					c6.3-5.2,12.9-10.1,19.6-14.9c5.3-3.9,10.4-7.9,15-12.8c7.6-8.1,14.3-17,22.4-24.6c4.7-4.4,6.3-10.5,8.7-16.1
					c0.8-1.9,1.5-4.2,2.6-5.7c3-4.2,3.4-9.1,4.5-13.9c1.4-5.9,1.2-11.9,0.6-17.8c-0.6-6-1.6-11.9-4-17.6c-1.3-3.2-2.1-6.6-3-9.9
					c-1.2-4.9-3.3-9.2-6.6-13.3c-3.1-3.8-5.9-7.9-9.2-11.5c-6.2-6.7-12.7-13.3-21.9-15.7c-5.1-1.3-10.1-2.9-15.5-3
					c-1.5,0-2.7-0.9-4.1-1.2c-7.1-1.6-14.4-1.8-21.6-2.5c-7.1-0.7-14.2-1-21.3-1.1c-6.7-0.1-13,1.7-19.3,3.5
					c-7.3,2-14.8,3.5-22.2,5.3c-4.7,1.1-8.9,3.4-13.5,4.9c-7.2,2.5-14.1,5.7-21.1,8.8c-2.5,1.1-5,2.1-7.6,2.9
					c-6.3,2-11.1,6.4-16.6,9.7c-6.1,3.7-11.2,8.7-17,12.7c-6.3,4.3-12.2,9.1-18.3,13.6c-4.9,3.5-8.3,8.7-13.2,12.2
					c-6.6,4.8-11.2,11.4-16.9,17c-2.1,2.1-4.3,4.1-6.4,6.1"/>
				
					<path fill="none" stroke="#000000" stroke-width="2" stroke-linecap="round" stroke-linejoin="round" stroke-miterlimit="10" d="
					M50,305.3c-6.3,1.5-12.6,3.1-19,4.3c-4.6,0.9-9.3,1.5-14,0.4c-1.7-0.4-3.5-0.5-5.3-0.1c-1.2,0.3-2.5,0.1-2.9,1.5
					c-0.4,1.4,0.3,2.6,1.2,3.5c1.8,1.6,4,2.8,6.4,2.6c5.6-0.4,11,1.1,16.3,2c7.6,1.3,15,0.9,22.5-0.2c3.8-0.5,4.9,1.3,5.5,4.4
					c0.2,1,0,1.9-1.1,2.3c-2.2,0.8-3.7,2.6-5.8,3.5c-5.5,2.5-8.7,7.6-12.6,11.9c1.9,3.3,4.6,4.3,8.2,2.7c6.6-2.9,13.5-5.4,19.5-9.3
					c3.8-2.5,8.2-4.7,11-8.8c1.2-1.7,3.4-2,5.2-2.6c2.7-0.8,4.8-2.2,6.4-4.5"/>
				
					<path fill="none" stroke="#000000" stroke-width="2" stroke-linecap="round" stroke-linejoin="round" stroke-miterlimit="10" d="
					M206.7,194.3c-1.3,1.6-2.4,3.3-3.3,5.2c-2.9,6.2-5.4,12.5-7.5,19.1c-1.5,4.9-0.6,9.4,3.7,12.9c2.6,2.1,4.8,4.7,7.9,6.2
					c0.9,0.4,1.6,1.4,2.2,2.5c2.4,4.9,5.8,9.3,9.2,13.5c2.8,3.4,4.6,7.6,7.5,11c3.2,3.8,6.8,7.4,11.1,9.9c5.4,3.3,10,7.6,14.2,12.1
					c4.5,4.8,8.4,10,13.4,14.3c2.6,2.3,4.3,5.7,6.5,8.4c2.9,3.4,5.8,6.9,9.1,9.9c5.3,4.9,9.5,10.7,13.3,16.8
					c0.7,1.2,1.9,2.6,0.9,4.3"/>
				
					<path fill="none" stroke="#000000" stroke-width="2" stroke-linecap="round" stroke-linejoin="round" stroke-miterlimit="10" d="
					M17.8,165.6c0.8,2.7,1.3,5.4,1.2,8.2c-0.1,2.5,2.5,5.7,4.9,5.8c7.4,0.2,14.7,2.6,22.3,0.3c3.6-1.1,7.4-2.3,11.3-2.2
					c2.4,0.1,4.9,0.1,7.3,0.3c7.6,0.6,15.3,1.4,22.8,2.9c6.8,1.4,13.2,4,19.2,7.1c-1.6,6.4-3.7,12.6-4.4,18.9
					c-0.5,4.9-1.5,9.7-2,14.6c-0.7,8.2-0.5,16.4-0.2,24.6c0.2,4.4-0.5,9-2.7,13.1c-2.2,4.1-3,8.7-4.1,13.2
					c-1.2,4.8-2.3,9.7-2.9,14.6c-0.6,4.2,0.2,8.4,0,12.6c0,1,0.5,2.1-0.6,2.9"/>
				
					<path fill="none" stroke="#000000" stroke-width="2" stroke-linecap="round" stroke-linejoin="round" stroke-miterlimit="10" d="
					M260.4,297.7c-1.6,3.6-1.9,7.5-2.3,11.4c-0.2,2-0.1,4.2-0.7,6.1c-1,3.1-0.3,5.6,1.8,7.9c1.8,2,3.9,3.6,4.8,6.4
					c2.6,8.3-2.5,15.7-11.2,16.8c-7,1-13.8-0.5-20.8-0.4c-3.1,0-6.2,0.5-9.4,0.3c-2.5-0.1-5.1-0.4-7.3-1.4
					c-3.8-1.7-7.5-1.5-11.1-0.4c-6.1,1.9-12.3,2.4-18.4,1c-7.7-1.8-15.3-4.5-23.1-5.7c-2-0.3-4.2,0.1-6.1,0.6c-3.7,1-7.5,1-11.1,0.3
					c-3.4-0.6-5.2-3.8-6.6-7.1c-1.2-2.8-0.6-4.8,1.1-6.7c1.7-2,3.8-1.8,6.8,0.3c2.9-1.6,5.5-3.8,9.3-3.4c1.8,0.2,3.3,1.2,5.2,1.4
					c3,0.3,5.4-0.3,7.3-2.5c2.6-3,5.7-5.7,9.4-6.2c2.8-0.4,5.6-1.2,8.5-1.3c1.5-0.1,2.7-0.4,3.8-1.2c5.6-4.6,12.8-7.4,16.9-13.7
					c1.6-2.5,3-5.2,3.2-8.2c0.3-4.3,0.2-8.6,0.2-12.9c-0.1-3.7-1.6-7.4-2.4-11.1c-0.3-1.4-0.4-2.9-0.6-4.4"/>
				
					<path fill="none" stroke="#000000" stroke-width="2" stroke-linecap="round" stroke-linejoin="round" stroke-miterlimit="10" d="
					M147.6,253.9c-0.4,5.8-1.5,11.4-3.8,16.6c-1.8,4.2-1.8,8.6-2.2,12.9c-0.4,4.6-1.6,9-2.5,13.4c-0.6,2.9-0.8,5.9-1.6,8.8
					c-0.9,3.6-2.3,7-3.6,10.5c-3.9,10.9-10.4,20.6-15.6,30.9c-2.4,4.8-3.6,9.7-4.3,14.9c-0.1,0.7-0.2,1.2-0.6,1.8"/>
				
					<path fill="none" stroke="#000000" stroke-width="2" stroke-linecap="round" stroke-linejoin="round" stroke-miterlimit="10" d="
					M272.7,89.6c-8.4,6.2-14.9,14.2-20.8,22.8c-1.3,1.9-2.8,3.8-4.4,5.6c-4.6,5.3-7.2,11.7-10.3,17.8c-4.2,8.4-8.8,16.6-13,24.9
					c-0.4,0.7-1.3,1.1-1.3,2"/>
				
					<path fill="none" stroke="#000000" stroke-width="2" stroke-linecap="round" stroke-linejoin="round" stroke-miterlimit="10" d="
					M105.8,98.4c-1.9-4.3-3.6-8.6-5.6-12.9c-3.4-7.6-9-13.2-16.7-16.3c-4.2-1.7-8.8-2.6-13.4-3.1C64,65.4,57.9,65.9,52,66.7
					c-11.9,1.6-22.7,6.1-29.9,16.7c-1.5,2.3-3.5,4.3-4.6,6.7c-2.2,4.7-3.2,9.8-4.1,14.9c-0.6,3.9-1.1,7.7-0.4,11.7
					c0.3,1.9,0.2,4-0.8,5.8C9,128.8,7,135.7,2.1,141.1c-2,2.2,0.3,6.1,3.5,6.4c2.2,0.2,4.3-0.4,6.4-0.7c1.6-0.2,2.8,0.2,4.2,0.5
					c-0.3,1.5-1.3,2.3-2.2,3.1c-1,1-1.9,2.3-1.4,3.5c0.7,1.7,2.2,2.9,4.3,2.7c0.5,0,1,0,1.5,0"/>
				
					<path fill="none" stroke="#000000" stroke-width="2" stroke-linecap="round" stroke-linejoin="round" stroke-miterlimit="10" d="
					M98.2,184.6c-1.7,7.2-3.8,14.3-4.7,21.6c-0.9,6.9-2.3,13.6-4.6,20.2c-0.5,1.5-0.6,3.1-0.6,4.7c0.1,4.3-0.7,8.6-0.5,12.9
					c0.2,5.4-0.5,10.6-1.7,15.8c-1.1,5.1-1,10.3-2.5,15.2c-1.2,3.8-1.8,7.8-3.5,11.4c-2.5,5.1-7.2,7.3-12.3,8.7
					c-7.9,2.2-16.1,2.7-24.2,3.3c-0.4,0-0.9-0.2-1.2,0c-4.4,3.3-9.9,2.1-14.7,4c-0.7,0.3-1.7-0.2-2.6-0.2c-1.6-0.1-3.1-0.2-4.7-0.4
					c-0.2,1.4-0.4,2.5-0.5,3.6"/>
				
					<path fill="none" stroke="#000000" stroke-width="2" stroke-linecap="round" stroke-linejoin="round" stroke-miterlimit="10" d="
					M220.1,166.8c-0.2,0.3-0.5,0.6-0.6,0.9c-0.3,4.1-3.7,5.1-6.5,6c-3.3,1-4.9,3.3-6.7,5.7c-1.7,2.4-3.4,4.8-5,7.3
					c-3.9,6.5-9.7,10.5-16.7,13.1c-1.2,0.5-1.8,1-1.5,2.6c1,6.8,3.4,13,5.9,19.3c3.3,8.2,7.8,15.8,11.3,23.9c1.6,3.7,3.4,7.5,5,11.2
					c0.9,2,1.2,4.3,1.8,6.4"/>
				
					<path fill="none" stroke="#000000" stroke-width="2" stroke-linecap="round" stroke-linejoin="round" stroke-miterlimit="10" d="
					M296.1,344.5c0.7,3,0.9,6-0.6,8.7c-1.3,2.4-3.4,4.5-5.6,6.1c-4.9,3.7-9.9,7.4-15.2,10.5c-3.4,2-7.2,3.4-11,4.5
					c-2.3,0.6-4.2,2-6.4,3c-6.9,3-14,5.1-21.1,7.2c-2.3,0.7-4.6,1.1-7,0.8c-3.3-0.4-6.6,0.9-10,0.4c-1.9-0.2-3.8,1.5-4.6,3.4
					c-0.7,1.6,0.6,2.8,1.6,4.1c2.4,2.9,5.5,3.8,9.1,2.9c0.8-0.2,1.4-0.4,2.1,0"/>
				
					<path fill="none" stroke="#000000" stroke-width="2" stroke-linecap="round" stroke-linejoin="round" stroke-miterlimit="10" d="
					M124.5,115.6c-6.6,1-10.3,5.8-14,10.5c-3.1,4-5.3,8.7-7.6,13.2c-1.2,2.3-1.4,5-1.9,7.6c-1.1,6.2,0.5,11.7,3.2,17.3
					c1.9,4,3.3,8.1,3.5,12.8c0.2,3.6,0.2,7-1.4,10.2"/>
				
					<path fill="none" stroke="#000000" stroke-width="2" stroke-linecap="round" stroke-linejoin="round" stroke-miterlimit="10" d="
					M83.3,355.3c-2.8,2.7-6.3,3.2-9.9,3.5c-4.4,0.4-8.8-0.4-13.1-1.1c-4.6-0.7-7.9,1.1-11.1,3.5c-4.5,3.4-9.5,5.9-14.7,8.1
					c-5.4,2.3-11,4.3-14.9,9c-1.1,1.3-2.5,2.4-3.8,3.6c0.1,1.3,1.4,1.7,2.1,2.5"/>
				
					<path fill="none" stroke="#000000" stroke-width="2" stroke-linecap="round" stroke-linejoin="round" stroke-miterlimit="10" d="
					M48.8,393c-3.8,6.6-6.8,13.7-12.3,19.3c-0.6,0.6-1.2,1.2-0.8,2c0.4,1,1.4,0.8,2.3,0.9c3.3,0.5,5.3-1.6,7.3-3.6
					c2.6-2.6,5.6-5,7.6-8.2c1.5-2.4,4.5-1.9,6.5-3.4c1.4-1,3.1-1.7,4.3-3c4.4-4.9,10-5.6,16.1-5.3c6.1,0.3,12.1,0.3,17.9-2.5
					c3-1.4,5.7-3.2,8.4-5.1c1.8-1.3,3-3.2,3.1-5.3c0.2-4.8,2.6-8.9,3.6-13.4c0.1-0.3,0.2-0.7,0.3-1"/>
				
					<path fill="none" stroke="#000000" stroke-width="2" stroke-linecap="round" stroke-linejoin="round" stroke-miterlimit="10" d="
					M164,186.1c-0.7,1.8-2.5,1.6-3.8,1.9c-2,0.5-2.5,1.6-2.9,3.3c-1.4,6.5-2.7,13.1-4.3,19.6c-1.5,6.5-3.4,12.8-5,19.3
					c-0.8,3.1-1.1,6.3-0.5,9.7c0.7,4,0.2,8.2,0.2,12.3"/>
				
					<path fill="none" stroke="#000000" stroke-width="2" stroke-linecap="round" stroke-linejoin="round" stroke-miterlimit="10" d="
					M90.3,321.4c1,3.6-0.8,6.9-1.3,10.2c-1.2,7.1-3.2,14-4.8,21.1c-0.6,2.6,0.7,4.4,4.4,6.1"/>
				
					<path fill="none" stroke="#000000" stroke-width="2" stroke-linecap="round" stroke-linejoin="round" stroke-miterlimit="10" d="
					M25.1,392.2c-0.4,1.9-2.3,2.2-3.5,3.2c-2,1.6-2,2.8,0.3,4.1c2.4,1.4,4.6,1.4,7.3,0.4c5.8-2.1,11.7-3.8,16.9-7.1
					c1.3-0.9,2.5,0.4,3.8-0.2c2.9-1.2,5.5-2.9,7.8-5.1c1.3-1.2,2.6-2.2,4.1-2.9"/>
				
					<path fill="none" stroke="#000000" stroke-width="2" stroke-linecap="round" stroke-linejoin="round" stroke-miterlimit="10" d="
					M50,370.2c-5.6,3.5-11.7,6.4-17.9,8.6c-4.6,1.6-8.8,4-13.3,5.6c-2.4,0.9-4.1,3.4-6.5,4.7c1.9,3.3,6.3,4.9,9.4,3.3
					c2.1-1.1,4.5-0.4,6.8-1.6c1.9-1,4-1.7,5.7-3.1c2.8-2.3,5.8-3.9,9.3-5c3.3-1.1,6.5-2.8,9.7-4.3"/>
				
					<path fill="none" stroke="#000000" stroke-width="2" stroke-linecap="round" stroke-linejoin="round" stroke-miterlimit="10" d="
					M45,301.5c-3.1,1.9-7,1.1-10.2,2.4c-3.4,1.4-7.3,0.5-10.5,2.3c-1.3,0.8-2.5-0.1-3.5-0.2c-3.9-0.6-5-0.1-5,3.7"/>
				
					<path fill="none" stroke="#000000" stroke-width="2" stroke-linecap="round" stroke-linejoin="round" stroke-miterlimit="10" d="
					M247.6,386.6c-1.6,1.9-3.7,3.2-5.9,4.4c-1.8,1-3.6,1.6-5.8,1.3c-2.3-0.4-4.6-0.4-6,2.7c-0.7,1.4-2.9,2.4-3.3,4.5
					c-0.1,0.4-0.3,0.8-0.2,1.2c0.8,3.2,3.8,3.3,6.1,4c1.6,0.5,3-0.5,3.8-2.2c1-2,2.4-3.7,5.2-3.9c1.7-0.1,3.1-1.3,4.4-2.5
					c0.9-0.9,1.6-2.1,2.9-2.4"/>
				
					<path fill="none" stroke="#000000" stroke-width="2" stroke-linecap="round" stroke-linejoin="round" stroke-miterlimit="10" d="
					M162.5,326.1c-1.5,2.4-4.3,2.3-6.5,2.7c-2.8,0.5-6,1-8.7-1"/>
				
					<path fill="none" stroke="#000000" stroke-width="2" stroke-linecap="round" stroke-linejoin="round" stroke-miterlimit="10" d="
					M155.5,203c2.8,0.1,5.6,0.1,8.5,0.5c3.9,0.5,7.8-0.5,11.7-0.9c2.4-0.3,4.7-0.5,7-1.3"/>
				
					<path fill="none" stroke="#000000" stroke-width="2" stroke-linecap="round" stroke-linejoin="round" stroke-miterlimit="10" d="
					M254.9,395.4c-0.6,2.3-2.2,4-4.1,4.8c-2,0.8-3.1,2.5-4.9,3.4c-1,0.6-2.2,2-1.7,3.4c0.6,1.9,2.1,3.1,4,3.5
					c1.5,0.3,3.2,0.5,4.7-0.5"/>
				
					<path fill="none" stroke="#000000" stroke-width="2" stroke-linecap="round" stroke-linejoin="round" stroke-miterlimit="10" d="
					M217.2,172.3c0.4,2.1-1.5,3.3-2.1,5c-1,2.9-2.1,5.9-3.2,8.8"/>
				
					<path fill="none" stroke="#000000" stroke-width="2" stroke-linecap="round" stroke-linejoin="round" stroke-miterlimit="10" d="
					M106.1,99c-0.5,2.9,0,5.6,1.3,8.2c-1.8,1.3-2.2,3.7-3.9,5"/>
				
					<path fill="none" stroke="#000000" stroke-width="2" stroke-linecap="round" stroke-linejoin="round" stroke-miterlimit="10" d="
					M357.2,143.7c-1.7-1.9-4.2-2.1-6.4-2.3c-2.1-0.2-4.1-0.3-6.1-0.7"/>
				
					<path fill="none" stroke="#000000" stroke-width="2" stroke-linecap="round" stroke-linejoin="round" stroke-miterlimit="10" d="
					M140,111.2c-0.6-0.1-1-0.4-1.8-0.1c-3.1,1.4-6.5,1.7-9.9,2.1"/>
				
					<path fill="none" stroke="#000000" stroke-width="2" stroke-linecap="round" stroke-linejoin="round" stroke-miterlimit="10" d="
					M15.8,156.8c-0.6,0.8-1.2,1.5-1.7,2.3c-0.8,1.3-1.6,2.9-0.8,4.3c0.8,1.5,2.7,1.6,4.3,1.7c0.7,0.1,1.4-0.3,2-0.5"/>
				
					<path fill="none" stroke="#000000" stroke-width="2" stroke-linecap="round" stroke-linejoin="round" stroke-miterlimit="10" d="
					M273.6,69.7c-2,4.9-1.8,10.1-1.8,15.2"/>
				
					<path fill="none" stroke="#000000" stroke-width="2" stroke-linecap="round" stroke-linejoin="round" stroke-miterlimit="10" d="
					M338.2,23c-3.1,0-6.3-0.6-9.4,0.3c-0.6,0.2-1.1,0.2-1.2,0.9"/>
				
					<path fill="none" stroke="#000000" stroke-width="2" stroke-linecap="round" stroke-linejoin="round" stroke-miterlimit="10" d="
					M65.8,166.5c-3.2,3-5.7,6.6-7.6,10.5"/>
				
					<path fill="none" stroke="#000000" stroke-width="2" stroke-linecap="round" stroke-linejoin="round" stroke-miterlimit="10" d="
					M244.1,219.4c-3.5-1.2-7-0.5-10.5-0.3"/>
				
					<path fill="none" stroke="#000000" stroke-width="2" stroke-linecap="round" stroke-linejoin="round" stroke-miterlimit="10" d="
					M353.4,26.8c-3.4-1.2-6.9-1.9-10.5-2.3"/>
				
					<path fill="none" stroke="#000000" stroke-width="2" stroke-linecap="round" stroke-linejoin="round" stroke-miterlimit="10" d="
					M310.7,28.8c-2.2,1.3-4.6,2-7,2.6c-1,0.2-1.9,0.4-2.3,1.5"/>
				
					<path fill="none" stroke="#000000" stroke-width="2" stroke-linecap="round" stroke-linejoin="round" stroke-miterlimit="10" d="
					M197.6,121.8c1.2,3.2,2.3,6.4,3.5,9.6"/>
				
					<path fill="none" stroke="#000000" stroke-width="2" stroke-linecap="round" stroke-linejoin="round" stroke-miterlimit="10" d="
					M193.8,136.4c-3.1,1.5-6.3,2.8-9.6,3.8"/>
				
					<path fill="none" stroke="#000000" stroke-width="2" stroke-linecap="round" stroke-linejoin="round" stroke-miterlimit="10" d="
					M237.1,42.3c2.2,0.9,3,2.9,3.9,4.9c0.5,1.2,0.6,2.8,2,3.5"/>
				
					<path fill="none" stroke="#000000" stroke-width="2" stroke-linecap="round" stroke-linejoin="round" stroke-miterlimit="10" d="
					M278.3,56.3c-0.9,3.2-3.3,5.9-3.5,9.4"/>
				
					<path fill="none" stroke="#000000" stroke-width="2" stroke-linecap="round" stroke-linejoin="round" stroke-miterlimit="10" d="
					M251.1,70.3c0.9,2.2,1.9,4.4,2.6,6.7c0.3,0.9,0.7,1.4,1.5,1.7"/>
				
					<path fill="none" stroke="#000000" stroke-width="2" stroke-linecap="round" stroke-linejoin="round" stroke-miterlimit="10" d="
					M323,26.5c-2.7,1.4-5.9,1.3-8.8,2.3"/>
				
					<path fill="none" stroke="#000000" stroke-width="2" stroke-linecap="round" stroke-linejoin="round" stroke-miterlimit="10" d="
					M74.2,152.2c-0.8,3.1-3.3,4.8-5.5,6.7c-0.5,0.4-0.8,1-1.2,1.5"/>
				
					<path fill="none" stroke="#000000" stroke-width="2" stroke-linecap="round" stroke-linejoin="round" stroke-miterlimit="10" d="
					M225.1,217.6c-2.8,1.1-5.7,0.2-8.5,0.3"/>
				
					<path fill="none" stroke="#000000" stroke-width="2" stroke-linecap="round" stroke-linejoin="round" stroke-miterlimit="10" d="
					M245.8,57.5c1.1,2.8,2.1,5.7,3.2,8.5"/>
				
					<path fill="none" stroke="#000000" stroke-width="2" stroke-linecap="round" stroke-linejoin="round" stroke-miterlimit="10" d="
					M88.6,302.7c1.7,0.3,2,1.6,2,2.9c0.1,3.6,0,7.2,0,10.8c0,1.2-0.3,2.6,1.7,2"/>
				
					<path fill="none" stroke="#000000" stroke-width="2" stroke-linecap="round" stroke-linejoin="round" stroke-miterlimit="10" d="
					M294.1,35c-2.7,2.3-5.5,4.7-8.2,7"/>
				
					<path fill="none" stroke="#000000" stroke-width="2" stroke-linecap="round" stroke-linejoin="round" stroke-miterlimit="10" d="
					M266.3,131.4c-2.7,0-5.5,0-8.2,0"/>
				
					<path fill="none" stroke="#000000" stroke-width="2" stroke-linecap="round" stroke-linejoin="round" stroke-miterlimit="10" d="
					M260.4,222c-2.7-0.2-5.5-0.4-8.2-0.6"/>
				
					<path fill="none" stroke="#000000" stroke-width="2" stroke-linecap="round" stroke-linejoin="round" stroke-miterlimit="10" d="
					M83.6,138.1c-1.3,3-2.4,6-5.6,7.6"/>
				
					<path fill="none" stroke="#000000" stroke-width="2" stroke-linecap="round" stroke-linejoin="round" stroke-miterlimit="10" d="
					M162.5,112.7c2.7,2,6,3.2,7.6,6.4"/>
				
					<path fill="none" stroke="#000000" stroke-width="2" stroke-linecap="round" stroke-linejoin="round" stroke-miterlimit="10" d="
					M186.8,97.8c2,2.2,2.4,5.3,4.1,7.6"/>
				
					<path fill="none" stroke="#000000" stroke-width="2" stroke-linecap="round" stroke-linejoin="round" stroke-miterlimit="10" d="
					M231.5,111.5c-2.3,2.1-5.1,3-7.9,4.1"/>
				
					<path fill="none" stroke="#000000" stroke-width="2" stroke-linecap="round" stroke-linejoin="round" stroke-miterlimit="10" d="
					M90.6,125.3c-0.6,3-2.5,5.4-4.1,7.9"/>
				
					<path fill="none" stroke="#000000" stroke-width="2" stroke-linecap="round" stroke-linejoin="round" stroke-miterlimit="10" d="
					M179.2,165.6c-0.2,2.9-2.5,4.9-3.2,7.6"/>
				
					<path fill="none" stroke="#000000" stroke-width="2" stroke-linecap="round" stroke-linejoin="round" stroke-miterlimit="10" d="
					M175.1,123.5c1.1,2.5,2.1,5.1,3.2,7.6"/>
				
					<path fill="none" stroke="#000000" stroke-width="2" stroke-linecap="round" stroke-linejoin="round" stroke-miterlimit="10" d="
					M242.9,129.7c2.5,0.6,5.1,1.2,7.6,1.8"/>
				
					<path fill="none" stroke="#000000" stroke-width="2" stroke-linecap="round" stroke-linejoin="round" stroke-miterlimit="10" d="
					M245.8,97.8c-2.3,1.8-4.7,3.5-7,5.3"/>
				
					<path fill="none" stroke="#000000" stroke-width="2" stroke-linecap="round" stroke-linejoin="round" stroke-miterlimit="10" d="
					M90.3,173.2c-2,2-3.1,4.5-4.1,7"/>
				
					<path fill="none" stroke="#000000" stroke-width="2" stroke-linecap="round" stroke-linejoin="round" stroke-miterlimit="10" d="
					M316.6,138.1c-2.4-0.1-4.5-1.7-7-1.5"/>
				
					<path fill="none" stroke="#000000" stroke-width="2" stroke-linecap="round" stroke-linejoin="round" stroke-miterlimit="10" d="
					M197,217.6c3.5-0.1,7,0.8,10.5-0.3c0.6-0.2,1.1,0.2,1.2,0.9"/>
				
					<path fill="none" stroke="#000000" stroke-width="2" stroke-linecap="round" stroke-linejoin="round" stroke-miterlimit="10" d="
					M256.3,88.2c-2.3,1.7-4,4.3-7,5"/>
				
					<path fill="none" stroke="#000000" stroke-width="2" stroke-linecap="round" stroke-linejoin="round" stroke-miterlimit="10" d="
					M231.5,29.4c1.6,2.6,3.6,4.8,5.6,7"/>
				
					<path fill="none" stroke="#000000" stroke-width="2" stroke-linecap="round" stroke-linejoin="round" stroke-miterlimit="10" d="
					M258.1,294.8c-0.9,0.6-1.7,1.3-2.9,0.6c-1.6-0.9-3.5-0.6-5.2-0.6"/>
				
					<path fill="none" stroke="#000000" stroke-width="2" stroke-linecap="round" stroke-linejoin="round" stroke-miterlimit="10" d="
					M334.1,343c-2.2,0.1-4.5-1.5-6.7,0"/>
				
					<path fill="none" stroke="#000000" stroke-width="2" stroke-linecap="round" stroke-linejoin="round" stroke-miterlimit="10" d="
					M232.1,294.5c-2.2-1.2-4.5-0.3-6.7-0.6"/>
				
					<path fill="none" stroke="#000000" stroke-width="2" stroke-linecap="round" stroke-linejoin="round" stroke-miterlimit="10" d="
					M179.8,85.5c2,1.7,2.4,4.5,4.1,6.4"/>
				
					<path fill="none" stroke="#000000" stroke-width="2" stroke-linecap="round" stroke-linejoin="round" stroke-miterlimit="10" d="
					M183,153c-0.5,2.6-1,5.3-1.5,7.9"/>
				
					<path fill="none" stroke="#000000" stroke-width="2" stroke-linecap="round" stroke-linejoin="round" stroke-miterlimit="10" d="
					M222.7,19.5c0.6,2.6,2.2,4.6,4.4,6.1"/>
				
					<path fill="none" stroke="#000000" stroke-width="2" stroke-linecap="round" stroke-linejoin="round" stroke-miterlimit="10" d="
					M319.5,343.9c-2.1,0.2-4.3,0.4-6.4,0.6"/>
				
					<path fill="none" stroke="#000000" stroke-width="2" stroke-linecap="round" stroke-linejoin="round" stroke-miterlimit="10" d="
					M327.7,139.3c2.1,0.7,4.3,0.6,6.4,0.6"/>
				
					<path fill="none" stroke="#000000" stroke-width="2" stroke-linecap="round" stroke-linejoin="round" stroke-miterlimit="10" d="
					M235.3,404.4c1.9,3.7,5.1,3.5,8.5,2.9"/>
				
					<path fill="none" stroke="#000000" stroke-width="2" stroke-linecap="round" stroke-linejoin="round" stroke-miterlimit="10" d="
					M144.7,266.8c-2-1.2-4.4-0.1-6.4-0.9"/>
				
					<path fill="none" stroke="#000000" stroke-width="2" stroke-linecap="round" stroke-linejoin="round" stroke-miterlimit="10" d="
					M99.7,115.9c-1.5,2-2.9,4.1-4.4,6.1"/>
				
					<path fill="none" stroke="#000000" stroke-width="2" stroke-linecap="round" stroke-linejoin="round" stroke-miterlimit="10" d="
					M95.6,163.3c-2.4,1.1-2.2,4-3.8,5.6"/>
				
					<path fill="none" stroke="#000000" stroke-width="2" stroke-linecap="round" stroke-linejoin="round" stroke-miterlimit="10" d="
					M206.9,127.9c-1.9,2.5-5,3.3-7.6,4.7"/>
				
					<path fill="none" stroke="#000000" stroke-width="2" stroke-linecap="round" stroke-linejoin="round" stroke-miterlimit="10" d="
					M90.3,361.5c2.1,0.6,3.9,1.9,5.8,2.9"/>
				
					<path fill="none" stroke="#000000" stroke-width="2" stroke-linecap="round" stroke-linejoin="round" stroke-miterlimit="10" d="
					M280,133.8c-1.9-0.2-3.7-0.4-5.6-0.6"/>
				
					<path fill="none" stroke="#000000" stroke-width="2" stroke-linecap="round" stroke-linejoin="round" stroke-miterlimit="10" d="
					M365.7,32.6c-2-0.1-3.2-2.2-5.3-2.3"/>
				
					<path fill="none" stroke="#000000" stroke-width="2" stroke-linecap="round" stroke-linejoin="round" stroke-miterlimit="10" d="
					M100.8,157.4c-2,1-3,2.9-4.1,4.7"/>
				
					<path fill="none" stroke="#000000" stroke-width="2" stroke-linecap="round" stroke-linejoin="round" stroke-miterlimit="10" d="
					M218.3,119.1c-2.2,0.4-3.3,2.6-5.3,3.2"/>
				
					<path fill="none" stroke="#000000" stroke-width="2" stroke-linecap="round" stroke-linejoin="round" stroke-miterlimit="10" d="
					M193.5,112.7c0.7,1.7,0.8,3.8,2.6,5"/>
				
					<path fill="none" stroke="#000000" stroke-width="2" stroke-linecap="round" stroke-linejoin="round" stroke-miterlimit="10" d="
					M146.4,108.9c2.8,0.1,5.7,0.2,8.5,0.3c0.7,0,1.1,0.2,1.2,0.9"/>
				
					<path fill="none" stroke="#000000" stroke-width="2" stroke-linecap="round" stroke-linejoin="round" stroke-miterlimit="10" d="
					M285.3,45.5c-1.6,1.8-3.1,3.5-4.7,5.3"/>
				
					<path fill="none" stroke="#000000" stroke-width="2" stroke-linecap="round" stroke-linejoin="round" stroke-miterlimit="10" d="
					M166,64.2c1.1,1.7,2.1,3.3,3.2,5"/>
				
					<path fill="none" stroke="#000000" stroke-width="2" stroke-linecap="round" stroke-linejoin="round" stroke-miterlimit="10" d="
					M159,54.2c1.5,1.5,2.9,2.9,3.5,5"/>
				
					<path fill="none" stroke="#000000" stroke-width="2" stroke-linecap="round" stroke-linejoin="round" stroke-miterlimit="10" d="
					M183.6,138.7c0.6,2.2-0.1,4.6,0.9,6.7"/>
				
					<path fill="none" stroke="#000000" stroke-width="2" stroke-linecap="round" stroke-linejoin="round" stroke-miterlimit="10" d="
					M101.4,255.6c2.1-0.9,4.3,0.6,6.4-0.3"/>
				
					<path fill="none" stroke="#000000" stroke-width="2" stroke-linecap="round" stroke-linejoin="round" stroke-miterlimit="10" d="
					M298.7,344.8c2.1,0.1,4.3,0.2,6.4,0.3"/>
				
					<path fill="none" stroke="#000000" stroke-width="2" stroke-linecap="round" stroke-linejoin="round" stroke-miterlimit="10" d="
					M173,76.5c1,1.6,1.9,3.1,2.9,4.7"/>
				
					<path fill="none" stroke="#000000" stroke-width="2" stroke-linecap="round" stroke-linejoin="round" stroke-miterlimit="10" d="
					M111.4,256.2c1.5,0.7,2.9,1.8,4.7,1.8"/>
				
					<path fill="none" stroke="#000000" stroke-width="2" stroke-linecap="round" stroke-linejoin="round" stroke-miterlimit="10" d="
					M255.2,83.8c1.1,2.9,2.1,5.8,3.2,8.8"/>
				
					<path fill="none" stroke="#000000" stroke-width="2" stroke-linecap="round" stroke-linejoin="round" stroke-miterlimit="10" d="
					M259,97.2c-0.3,1.5,0.5,2.7,0.9,4.1"/>
				
					<path fill="none" stroke="#000000" stroke-width="2" stroke-linecap="round" stroke-linejoin="round" stroke-miterlimit="10" d="
					M240,294.8c1.3,1,2.7,0.5,4.1,0.3"/>
				
					<path fill="none" stroke="#000000" stroke-width="2" stroke-linecap="round" stroke-linejoin="round" stroke-miterlimit="10" d="
					M133,264.4c-1.4-0.3-2.7-0.6-4.1-0.9"/>
				
					<path fill="none" stroke="#000000" stroke-width="2" stroke-linecap="round" stroke-linejoin="round" stroke-miterlimit="10" d="
					M80.7,289.8c1.2,1,2.1,2.2,2.3,3.8"/>
				
					<path fill="none" stroke="#000000" stroke-width="2" stroke-linecap="round" stroke-linejoin="round" stroke-miterlimit="10" d="
					M219.2,295.1c-2.4,1.4-4.5,0.3-6.7-0.6"/>
				
					<path fill="none" stroke="#000000" stroke-width="2" stroke-linecap="round" stroke-linejoin="round" stroke-miterlimit="10" d="
					M121.3,260.3c0.5,1.3,1.6,2,2.9,2.3"/>
				
					<path fill="none" stroke="#000000" stroke-width="2" stroke-linecap="round" stroke-linejoin="round" stroke-miterlimit="10" d="
					M105.8,371.1c1.2,1.1,2.3,2.1,3.5,3.2"/>
				
					<path fill="none" stroke="#000000" stroke-width="2" stroke-linecap="round" stroke-linejoin="round" stroke-miterlimit="10" d="
					M309.5,4.6c0.3,1.3,1.3,2,2.3,2.6"/>
				
					<path fill="none" stroke="#000000" stroke-width="2" stroke-linecap="round" stroke-linejoin="round" stroke-miterlimit="10" d="
					M183.3,197.2c-1.4,0.9,0.2,1.8,0,2.6"/>
				
					<path fill="none" stroke="#000000" stroke-width="2" stroke-linecap="round" stroke-linejoin="round" stroke-miterlimit="10" d="
					M312.5,10.7c0.1,1.9,1.5,3.4,1.8,5.3"/>
				
					<path fill="none" stroke="#000000" stroke-width="2" stroke-linecap="round" stroke-linejoin="round" stroke-miterlimit="10" d="
					M291.7,135.5c2.2-0.1,4.5,0.3,6.7-0.3"/>
			</g>
		</g>
	</g>
	
		<text transform="matrix(1 0 0 1 157.2353 112.5578)" stroke="#FFFFFF" stroke-miterlimit="10" font-family="'Helvetica-Bold'" font-size="53.5861">CONTACT</text>
</g>
</svg>
